<svg width="1527" height="599" viewBox="0 0 1527 599" fill="none" xmlns="http://www.w3.org/2000/svg">
<path opacity="0.5" d="M1512.82 536.33H12.8201V36.3301H1512.82V536.33Z" fill="#023047" fill-opacity="0.2"/>
<path d="M1512.82 373.11V179.8L1452.72 109.44L1353.21 36.3299H1091.56C903.08 94.8599 673.64 176.33 931.11 155.93C1247.06 130.86 1446.82 304.33 1512.82 373.11Z" fill="white"/>
<path d="M763.82 36.3303H12.8201V310.33C108.38 338.22 223.33 355.05 342.23 334.53C477.7 311.14 589.95 262.59 739.23 199.13C888.51 135.67 763.82 36.3303 763.82 36.3303Z" fill="white"/>
<path d="M1512.82 311.1V36.3301H12.8201V192.46C12.8201 192.46 305.75 346.05 630.06 233.09C848.37 157.09 1021.73 143.48 1154.96 158.09C1404.04 185.33 1512.82 311.1 1512.82 311.1Z" fill="#023047"/>
<path opacity="0.2" d="M1512.82 311.1V36.3301H147.71C147.71 36.3301 230 201.61 505.57 204.72C781.14 207.83 834.11 93.0101 1154.96 158.07C1404.04 185.33 1512.82 311.1 1512.82 311.1Z" fill="#023047"/>
</svg>
